<svg xmlns="http://www.w3.org/2000/svg" viewBox="0 0 634.1 824.81"><defs><style>.cls-1{fill:#789380;}.cls-2{fill:#6a735e;}.cls-3{fill:#95574c;}.cls-4{fill:#0f1944;}</style></defs><title>bigTree</title><g id="图层_2" data-name="图层 2"><g id="BACKGROUND_2" data-name="BACKGROUND 2"><path class="cls-1" d="M197.34,380.66c-211.51,0-204.22-140-192.55-177s51.06-24.22,51.06-24.22-4.38-77.67,56.89-94.22,77.31,0,77.31,0,7.29-67.48,87.53-64.94,77.31,86.59,77.31,86.59,65.64-7.64,68.56,42C511,110.73,585.37,394.67,197.34,380.66Z"/><path class="cls-2" d="M337.92,360.41c-211.52,0-204.23-140-192.56-177s51.06-24.22,51.06-24.22S192,81.56,253.31,65s77.31,0,77.31,0S337.92-2.48,418.15.07s77.31,86.58,77.31,86.58,65.65-7.64,68.56,42C651.55,90.47,725.94,374.42,337.92,360.41Z"/><path class="cls-3" d="M131.27,200.77c-7.82,568.82-17.52,624-17.52,624H421s-6.71-31.94-23.37-627.75Z"/><path class="cls-4" d="M272,824.81c-1-26.06-2-52.12-2.94-78.19s-1.6-52.13-2.15-78.21c-1.08-52.15-1.76-104.3-2.42-156.46L261.6,199l3.48,312.94c.57,52.16,1.16,104.32,2.14,156.47q.75,39.11,2,78.21C270.07,772.69,271.06,798.75,272,824.81Z"/><path class="cls-4" d="M313.31,204.36l4.1,155.16q2.18,77.58,4.67,155.15c1.63,51.71,3.31,103.42,5.33,155.12L329,708.57l1.73,38.76.94,19.38,1,19.38c.75,12.91,1.46,25.83,2.5,38.72-1.07-12.89-1.8-25.81-2.57-38.72l-1-19.37-1-19.38-1.81-38.77-1.64-38.77c-2.11-51.69-3.88-103.4-5.6-155.11q-2.36-77.58-4.39-155.16Z"/><path class="cls-4" d="M180.26,200.76l2.57,156,2.87,156q1.41,78,3.08,156l1.89,78c.72,26,1.41,52,2.57,78-1.21-26-1.94-52-2.71-78l-2-78q-1.89-78-3.37-156l-2.58-156Z"/></g></g></svg>