<svg xmlns="http://www.w3.org/2000/svg" viewBox="0 0 347.62 538.95"><defs><style>.cls-1{fill:#95574c;}.cls-2{fill:#d46641;}.cls-3{fill:#843462;}</style></defs><title>foregroundFlower</title><g id="图层_2" data-name="图层 2"><g id="BACKGROUND_2" data-name="BACKGROUND 2"><path class="cls-1" d="M167.15,61.85a2.53,2.53,0,0,0-1.11-.91,2.29,2.29,0,0,0-2.94,1.38c-137.28,371.25-43.57,471.82-39.52,476a2.3,2.3,0,0,0,3.25-3.24c-1-1-95.46-103.32,40.57-471.15A2.37,2.37,0,0,0,167.15,61.85Z"/><path class="cls-1" d="M51.21,114q-5.77-8.9-12.49-17.7a2.28,2.28,0,1,0-3.61,2.77c69.61,91,61.05,199.73,61,200.82a2.28,2.28,0,1,0,4.55.41C100.73,299.27,108.39,202.35,51.21,114Z"/><path class="cls-1" d="M183.85,273.35a2.29,2.29,0,0,0-2.86-.86C116.05,301.39,90.33,405.57,89.27,410a2.29,2.29,0,0,0,4.45,1.05C94,410,120,304.64,182.86,276.69a2.36,2.36,0,0,0,1.15-3A2.72,2.72,0,0,0,183.85,273.35Z"/><path class="cls-2" d="M150,53.11c-8,12.22-11.58,24.1.66,32.15A26.51,26.51,0,1,0,179.81,41C167.58,32.88,158.09,40.86,150,53.11Z"/><path class="cls-2" d="M5,91.85c-8,12.24-6.45,14.39,5.8,22.44a26.49,26.49,0,0,0,36.71-7.58c8.06-12.23-1.63-26.94-19.39-32C14,70.58,13,79.62,5,91.85Z"/><path class="cls-2" d="M159.75,260a26.53,26.53,0,0,0,7.6,36.73c12.24,8,21.17,1.23,29.2-11s12.17-25.25-.07-33.29A26.55,26.55,0,0,0,159.75,260Z"/><path class="cls-2" d="M106.31,143.53c-6.85,10.39-10.61,20-.21,26.83a22.53,22.53,0,1,0,24.76-37.65C120.44,125.86,113.14,133.13,106.31,143.53Z"/><path class="cls-2" d="M126,206.06a22.55,22.55,0,0,0,37.66,24.8c6.84-10.4,1.81-31.23-8.61-38.07S132.86,195.7,126,206.06Z"/><path class="cls-2" d="M52.66,182.53c-6.84,10.4,1.31,16.38,11.68,23.23s19.13,11.92,26,1.52a22.52,22.52,0,1,0-37.63-24.75Z"/><path class="cls-2" d="M68.24,277.11c-6.84,10.4-5.64,23.26,4.75,30.08a22.52,22.52,0,0,0,24.75-37.63C87.34,262.71,75.07,266.71,68.24,277.11Z"/><path class="cls-2" d="M118.27,341c-5.31,8.11-12.66,19.8-4.58,25.12s28.53,2.24,33.86-5.84A17.53,17.53,0,0,0,118.27,341Z"/><path class="cls-3" d="M206.26,148.83s55.8-8.75,65.16-57.79S253.55,0,253.55,0,146.26,72,206.26,148.83Z"/><path class="cls-3" d="M194.43,191S207,136,165,109.05,73.8,91.83,73.8,91.83,100.77,218.18,194.43,191Z"/><path class="cls-3" d="M196.32,196.46s36.94,42.73,83.51,24.72,67.79-63.37,67.79-63.37S229.77,104.89,196.32,196.46Z"/><path class="cls-3" d="M177.51,262s15.12,48.68,64,47.05,86.6-34.95,86.6-34.95S245.27,191.82,177.51,262Z"/><path class="cls-3" d="M160.75,277.59s20.83-41.36-16.24-71-86.65-31.65-86.65-31.65S64.87,280.84,160.75,277.59Z"/><path class="cls-3" d="M177.28,391.11s-37.22-62.55,46.7-272l-4.84-3.6S148.73,250.89,161.66,385Z"/></g></g></svg>