<svg xmlns="http://www.w3.org/2000/svg" viewBox="0 0 461.38 705"><defs><style>.cls-1{fill:#467775;}.cls-2{fill:#456769;}.cls-3{fill:#68877d;}.cls-4{fill:#0f1944;}</style></defs><title>backTree</title><g id="图层_2" data-name="图层 2"><g id="BACKGROUND_2" data-name="BACKGROUND 2"><path class="cls-1" d="M184.49,360.41c-197.74,0-190.92-140-180-177s47.73-24.22,47.73-24.22S48.12,81.56,105.39,65s72.28,0,72.28,0S184.49-2.48,259.5.07s72.28,86.58,72.28,86.58,61.36-7.64,64.09,42C477.7,90.47,547.25,374.42,184.49,360.41Z"/><path class="cls-2" d="M336,360.22c-15.28,10.22-34.11,16.87-51.4,20.78-40.53,9.17-87.77,7.84-122.35-16-60.9-42-.92-64,17.27-53-30-54.83,44.53-65,51.8-53.17,10.9-43.85,76.35-23.61,75.45,10.13,23.63-27,57.26,14.45,29.09,34.64,16-11.46,33.26.13,29.88,16.37C362.18,337.2,350.74,350.37,336,360.22Z"/><path class="cls-3" d="M175,206.27c-.44,62.16-1.77,122.86-4.57,173.24C159.75,572,149.05,705,149.05,705H266.73S269.51,451.26,252,205.6Z"/><path class="cls-4" d="M209.67,705c-1.9-20.74-2.83-41.54-3.76-62.34s-1.58-41.61-2.25-62.41q-1.95-62.43-3.28-124.87T198,330.5l-1-62.45-.85-62.45,2.23,124.89q1.15,62.44,2.55,124.88T204,580.24c.64,20.8,1.3,41.61,2.16,62.41S207.86,684.26,209.67,705Z"/><path class="cls-4" d="M233.85,705c-3.74-20.82-7.17-41.7-10.13-62.64s-5.6-42-7-63.07c-.32-5.28-.54-10.57-.55-15.87a83.49,83.49,0,0,1,1.19-15.85,19.5,19.5,0,0,1,1.16-3.84,5.43,5.43,0,0,1,2.67-3.07,3.17,3.17,0,0,1,1.06-.21c.18,0,.37,0,.53,0a1.41,1.41,0,0,0,.41,0,2.54,2.54,0,0,0,1.37-1.08,13.53,13.53,0,0,0,1.61-3.51,58.25,58.25,0,0,0,1.78-7.68c.45-2.6.81-5.21,1.13-7.83,1.24-10.49,1.87-21.06,2.38-31.61s.8-21.13,1-31.71c.81-42.29.38-84.59-.32-126.89s-1.84-84.58-3.29-126.86q2.39,63.41,3.62,126.86c.76,42.29,1.23,84.6.47,126.9-.2,10.58-.5,21.15-1,31.72s-1.12,21.13-2.35,31.65c-.31,2.63-.67,5.26-1.12,7.87a58.18,58.18,0,0,1-1.81,7.76,14,14,0,0,1-1.7,3.66,3.07,3.07,0,0,1-1.7,1.29,1.88,1.88,0,0,1-.58,0l-.46,0a2.32,2.32,0,0,0-.87.17,4.93,4.93,0,0,0-2.38,2.78,18.92,18.92,0,0,0-1.13,3.73,82.81,82.81,0,0,0-1.21,15.74c0,5.28.2,10.56.51,15.84,1.32,21.1,3.94,42.11,6.83,63S230.23,684.16,233.85,705Z"/><path class="cls-4" d="M171.27,363.38q5.25,21.14,9.29,42.55c2.65,14.27,4.95,28.63,6.33,43.09a202.73,202.73,0,0,1,1,21.77,86,86,0,0,1-.81,10.87A44.23,44.23,0,0,1,186,487a23.06,23.06,0,0,1-2,5.12,11.45,11.45,0,0,1-3.59,4.17c-.4.25-.83.45-1.23.67a7.77,7.77,0,0,0-1.09.7,9.47,9.47,0,0,0-1.77,2,31.53,31.53,0,0,0-3.75,10.06A141.5,141.5,0,0,0,170,531.24c-.86,14.48-.73,29-.34,43.52s1.2,29,2.15,43.49,2.13,29,3.44,43.41,2.69,28.91,4.29,43.34q-5.06-43.26-8.1-86.73c-1-14.48-1.8-29-2.25-43.5s-.59-29,.25-43.56a140.72,140.72,0,0,1,2.72-21.63A31.52,31.52,0,0,1,176,499.36a9.89,9.89,0,0,1,1.86-2.07,9.27,9.27,0,0,1,1.2-.75c.4-.22.79-.4,1.16-.63a11,11,0,0,0,3.45-4,23.3,23.3,0,0,0,1.94-5,43.28,43.28,0,0,0,1.08-5.3,83.3,83.3,0,0,0,.82-10.82,199.44,199.44,0,0,0-.95-21.72c-1.35-14.45-3.62-28.8-6.23-43.08S174.68,377.49,171.27,363.38Z"/></g></g></svg>